<?xml version="1.0" ?><!DOCTYPE svg  PUBLIC '-//W3C//DTD SVG 1.1//EN'  'http://www.w3.org/Graphics/SVG/1.1/DTD/svg11.dtd'><svg enable-background="new 0 0 512 512" height="512px" id="Tooth_x5F_anatomy" version="1.1" viewBox="0 0 512 512" width="512px" xml:space="preserve" xmlns="http://www.w3.org/2000/svg" xmlns:xlink="http://www.w3.org/1999/xlink"><path d="M492,263.324h-38.679c-29.417,0-56.096,13.325-73.672,34.913l28.145-117.685c9.593-40.113,0.394-80.543-23.436-102.998  c-15.885-14.969-36.264-19.689-57.385-13.293h-0.001l-33.751,10.23c-24.699,7.49-49.745,7.492-74.444-0.002l-33.751-10.229  c-21.12-6.396-41.5-1.676-57.385,13.293c-23.829,22.455-33.028,62.885-23.436,102.998l25.631,107.173  c-13.873-15.179-33.769-24.401-55.557-24.401H20c-2.762,0-5,2.238-5,5V445.52c0,2.762,2.238,5,5,5h170.349c0.003,0,0.007,0,0.011,0  s0.007,0,0.011,0H492c2.762,0,5-2.238,5-5V268.324C497,265.563,494.762,263.324,492,263.324z M316.718,440.52H194.544  c-0.759-4.227-1.466-8.287-2.121-12.172c8.464-0.78,15.382-7.735,16.049-16.451c2.264-29.551,9.081-64.268,17.791-90.6  c9.457-28.59,20.573-45.66,29.737-45.66s20.28,17.068,29.737,45.658c8.709,26.33,15.526,61.045,17.791,90.598  c0.706,9.229,8.415,16.492,17.462,16.535h0.009C319.477,434.31,317.973,438.256,316.718,440.52z M321.126,415.863  c-3.965-0.02-7.315-3.225-7.627-7.3c-2.322-30.304-9.321-65.929-18.268-92.974c-11.527-34.85-24.727-52.518-39.231-52.518  s-27.704,17.67-39.231,52.52c-8.946,27.047-15.946,62.674-18.268,92.975c-0.312,4.072-3.66,7.277-7.623,7.297  c-0.161,0-0.32-0.02-0.481-0.022c-6.071-39.119-6.393-58.551-5.355-68.151c0.378-3.49,0.921-7.082,1.445-10.555  c1.096-7.24,2.228-14.727,2.075-22.371c-0.141-7.032-1.361-13.885-2.542-20.514c-0.638-3.576-1.297-7.275-1.755-10.873  c-1.484-11.656-0.313-20.531,3.58-27.133c0.305-0.517,0.487-1.067,0.591-1.625c2.524-5.288,4.306-10.899,5.335-16.651  c0.161-0.149,0.315-0.309,0.459-0.483c3.301-4.021,9.038-6.574,15.348-6.832c1.114-0.046,2.289-0.041,3.535-0.035  c5.26,0.028,11.81,0.055,16.759-4.4c2.527-2.275,3.892-5.092,5.095-7.576c0.869-1.793,1.689-3.486,2.739-4.465  c2.327-2.17,6.794-1.914,11.518-1.641c6.391,0.371,13.627,0.787,19.053-4.512c1.976-1.93,2.014-5.096,0.084-7.07  c-1.929-1.977-5.097-2.012-7.07-0.084c-2.116,2.066-5.748,2.014-11.49,1.684c-6.308-0.364-13.458-0.777-18.914,4.311  c-2.415,2.252-3.745,4.996-4.918,7.418c-0.882,1.82-1.715,3.539-2.787,4.504c-2.075,1.869-5.926,1.852-10.02,1.832  c-1.301-0.006-2.649-0.012-3.991,0.043c-5.229,0.213-10.14,1.528-14.354,3.764c-0.066-2.732-0.309-5.459-0.707-8.165  c2.269-1.332,4.087-3.681,5.02-6.685c0.333-1.072,0.542-2.115,0.726-3.035c0.211-1.057,0.411-2.057,0.728-2.695  c0.614-1.238,2.214-2.324,4.067-3.582c2.123-1.441,4.53-3.073,6.363-5.602c1.979-2.732,2.768-5.783,3.463-8.475  c0.605-2.344,1.128-4.367,2.204-5.396c1.333-1.277,3.755-1.4,7.586-1.451c3.366-0.045,7.182-0.096,10.809-1.649  c7.253-3.11,10.495-10.884,12.432-15.526l7.405-17.754c1.063-2.547-0.141-5.477-2.689-6.539c-2.547-1.064-5.476,0.141-6.539,2.689  l-7.405,17.754c-1.831,4.389-3.891,8.789-7.144,10.184c-1.803,0.773-4.328,0.807-7.002,0.842  c-4.498,0.062-10.096,0.135-14.369,4.229c-3.13,2.998-4.149,6.945-4.969,10.117c-0.52,2.01-1.011,3.91-1.878,5.107  c-0.804,1.107-2.299,2.121-3.882,3.195c-2.508,1.703-5.63,3.82-7.413,7.418c-0.521,1.051-0.85,2.082-1.104,3.072  c-0.219-0.572-0.423-1.15-0.658-1.717c-1.325-3.182-2.885-6.223-4.394-9.164c-2.401-4.684-4.67-9.109-5.887-13.78  c-3.07-11.796,0.778-24.821,4.628-36.104c0.892-2.613-0.505-5.455-3.118-6.346c-2.616-0.893-5.455,0.506-6.347,3.117  c-4.317,12.658-8.609,27.375-4.841,41.852c1.494,5.738,4.124,10.865,6.667,15.824c1.484,2.895,2.887,5.629,4.059,8.445  c6.209,14.918,5.557,32.428-1.743,46.84c-0.171,0.337-0.291,0.684-0.38,1.035c-4.479,8.382-5.844,18.922-4.157,32.162  c0.489,3.844,1.171,7.666,1.829,11.363c1.165,6.537,2.266,12.711,2.39,18.959c0.136,6.793-0.885,13.537-1.964,20.676  c-0.541,3.576-1.101,7.275-1.5,10.977c-1.459,13.505,0.138,35.786,4.748,66.448c-6.765-3.519-12.159-10.06-14.041-17.929  l-51.874-216.908c-4.407-18.426-4.607-37.174-0.58-54.219c3.826-16.197,11.139-29.744,21.147-39.176  c9.314-8.777,25.138-17.813,47.627-11l33.749,10.229c26.624,8.08,53.625,8.076,80.247,0l33.749-10.229  c22.484-6.811,38.313,2.223,47.628,11c10.009,9.432,17.321,22.979,21.147,39.176c4.027,17.045,3.827,35.793-0.58,54.219  l-51.874,216.908c-1.657,6.933-6.045,12.848-11.684,16.567c1.393-9.385,2.077-17.909,2.029-22.175  c-0.05-4.378-0.359-8.755-0.659-12.986c-0.493-6.961-0.959-13.533-0.357-20.076c0.313-3.418,0.918-6.828,1.558-10.438  c1.224-6.906,2.489-14.048,1.635-21.465c-0.494-4.293-1.664-8.324-2.795-12.223c-1.196-4.121-2.326-8.016-2.58-11.893  c-0.271-4.143,0.447-8.416,1.208-12.939c0.331-1.971,0.674-4.01,0.936-6.068c1.236-9.729,0.576-19.814-1.862-29.331  c-0.033-0.464-0.108-0.931-0.279-1.388c-2.753-7.379-2.468-15.725,0.782-22.9c1.234-2.721,2.897-5.326,4.659-8.086  c2.337-3.66,4.753-7.445,6.356-11.84c5.433-14.889-1.12-32.658-14.918-40.455c-1.518-0.857-3.037-1.561-4.507-2.24  c-1.891-0.873-3.676-1.699-5.162-2.727c-6.916-4.783-8.982-14.822-10.376-23.857c-0.421-2.729-2.964-4.605-5.704-4.178  c-2.729,0.42-4.6,2.975-4.179,5.703c1.837,11.906,4.874,23.85,14.57,30.557c2.195,1.518,4.462,2.566,6.654,3.58  c1.347,0.622,2.619,1.211,3.783,1.869c9.498,5.367,14.184,18.072,10.443,28.32c-1.228,3.365-3.25,6.533-5.391,9.887  c-0.707,1.107-1.419,2.239-2.119,3.389c-3.456-2.311-7.352-3.676-10.944-4.932c-6.023-2.104-9.803-3.578-11.512-7.225  c-1.148-2.451-1.013-5.584-0.854-9.211c0.16-3.674,0.342-7.838-0.972-11.93c-1.596-4.975-4.997-8.68-7.998-11.947  c-0.953-1.037-1.853-2.018-2.678-3.01c-4.539-5.459-7.437-12.354-8.161-19.414c-0.282-2.748-2.743-4.744-5.483-4.465  c-2.747,0.281-4.746,2.736-4.464,5.484c0.924,9.016,4.624,17.818,10.419,24.787c0.982,1.183,2.009,2.299,3.001,3.381  c2.529,2.754,4.917,5.355,5.843,8.238c0.767,2.389,0.639,5.328,0.503,8.439c-0.188,4.32-0.401,9.215,1.79,13.891  c3.582,7.641,10.854,10.18,17.269,12.422c3.706,1.295,7.233,2.547,9.755,4.627c-2.911,8.283-3.034,17.441-0.306,25.801  c0.002,0.004,0.002,0.009,0.003,0.014c2.547,8.846,3.279,18.352,2.118,27.484c-0.236,1.859-0.548,3.711-0.877,5.672  c-0.822,4.891-1.672,9.945-1.325,15.25c0.325,4.966,1.662,9.572,2.955,14.027c1.063,3.662,2.066,7.121,2.465,10.58  c0.687,5.965-0.398,12.09-1.548,18.576c-0.647,3.652-1.317,7.432-1.67,11.268c-0.675,7.352-0.158,14.645,0.341,21.695  c0.29,4.088,0.589,8.313,0.635,12.395c0.053,4.681-0.922,15.188-2.833,26.071c-0.819,0.093-1.644,0.153-2.473,0.153 M25,273.324  h49.28c30.322,0,56.425,20.596,63.477,50.086l18.323,76.615c3.215,13.445,13.539,23.875,26.022,27.245  c0.711,4.278,1.471,8.694,2.281,13.249H25V273.324z M487,440.52H327.668c1.556-3.979,2.909-8.758,4.06-13.799  c11.653-3.857,21.136-13.914,24.192-26.695l14.694-61.441c9.189-38.424,43.2-65.26,82.707-65.26H487V440.52z"/></svg>