<?xml version="1.0" ?><!DOCTYPE svg  PUBLIC '-//W3C//DTD SVG 1.1//EN'  'http://www.w3.org/Graphics/SVG/1.1/DTD/svg11.dtd'><svg enable-background="new 0 0 512 512" height="512px" id="Dental_x5F_implants" version="1.1" viewBox="0 0 512 512" width="512px" xml:space="preserve" xmlns="http://www.w3.org/2000/svg" xmlns:xlink="http://www.w3.org/1999/xlink"><path d="M370.619,29.46c-14.286-13.463-32.614-17.711-51.61-11.958h-0.001l-30.039,9.105c-21.876,6.636-44.061,6.637-65.938,0  l-30.039-9.105c-18.996-5.754-37.324-1.505-51.61,11.958c-21.349,20.119-29.599,56.309-21.017,92.199l12.5,52.266  c2.543,10.633,11.954,18.059,22.887,18.059h18.299v25.554c0,11.636,9.467,21.102,21.103,21.102h5.709v50.577l-7.421,2.132  c-2.654,0.764-4.188,3.533-3.425,6.188c0.63,2.192,2.63,3.62,4.804,3.62c0.457,0,0.922-0.063,1.383-0.196l4.659-1.338v21.25  l-7.421,2.133c-2.654,0.763-4.188,3.533-3.425,6.187c0.63,2.192,2.63,3.62,4.804,3.62c0.457,0,0.922-0.063,1.383-0.195l4.659-1.339  v21.251l-7.421,2.132c-2.654,0.763-4.188,3.532-3.425,6.187c0.63,2.193,2.63,3.621,4.804,3.621c0.457,0,0.922-0.064,1.383-0.196  l4.659-1.339v21.251l-7.421,2.132c-2.654,0.764-4.188,3.533-3.425,6.188c0.63,2.192,2.63,3.62,4.804,3.62  c0.457,0,0.922-0.063,1.383-0.196l4.659-1.338v21.25l-7.421,2.133c-2.654,0.762-4.188,3.532-3.425,6.186  c0.63,2.193,2.63,3.621,4.804,3.621c0.457,0,0.922-0.063,1.383-0.195l4.659-1.34v14.751c0,7.886,3.021,15.349,8.509,21.015  l24.993,25.803c5.733,5.918,13.428,9.181,21.667,9.188c0.011,0,0.02,0,0.029,0c8.228,0,15.917-3.249,21.653-9.148l25.115-25.83  c5.513-5.67,8.549-13.147,8.549-21.056v-46.479l7.421-2.132c2.654-0.764,4.188-3.533,3.425-6.188  c-0.762-2.653-3.531-4.184-6.187-3.424l-4.659,1.338v-21.25l7.421-2.133c2.654-0.763,4.188-3.533,3.425-6.187  c-0.762-2.653-3.531-4.187-6.187-3.425l-4.659,1.339v-21.25l7.421-2.133c2.654-0.763,4.188-3.532,3.425-6.187  c-0.762-2.653-3.531-4.186-6.187-3.425l-4.659,1.339v-21.251l7.421-2.132c2.654-0.764,4.188-3.533,3.425-6.188  c-0.762-2.653-3.531-4.184-6.187-3.424l-4.659,1.338v-21.25l7.421-2.133c2.654-0.762,4.188-3.532,3.425-6.186  c-0.762-2.654-3.531-4.185-6.187-3.426l-4.659,1.34v-18.82h5.471c11.636,0,21.103-9.466,21.103-21.102v-25.554h18.299  c10.933,0,20.344-7.426,22.887-18.059l12.5-52.266C400.218,85.769,391.968,49.579,370.619,29.46z M301.377,440.965  c0,5.29-2.031,10.292-5.719,14.084l-25.115,25.831c-3.837,3.946-8.98,6.119-14.483,6.119c-0.007,0-0.014,0-0.02,0  c-5.512-0.005-10.659-2.188-14.493-6.147l-24.993-25.801c-3.671-3.791-5.692-8.783-5.692-14.058v-17.624l90.516-26.01V440.965z   M301.377,386.954l-90.516,26.011v-21.251l90.516-26.011V386.954z M301.377,355.299l-90.516,26.01v-21.25l90.516-26.011V355.299z   M301.377,323.643l-90.516,26.011v-21.251l90.516-26.01V323.643z M301.377,291.987l-90.516,26.011v-21.251l90.516-26.01V291.987z   M301.377,260.332l-90.516,26.01v-47.703h90.516V260.332z M327.95,217.537c0,6.122-4.98,11.102-11.103,11.102h-10.471H205.861  h-10.709c-6.122,0-11.103-4.98-11.103-11.102v-25.554h143.9V217.537z M381.909,119.333l-12.5,52.266  c-1.462,6.114-6.873,10.385-13.16,10.385H332.95h-153.9h-23.299c-6.287,0-11.698-4.271-13.16-10.385l-12.5-52.266  c-7.646-31.968-0.352-65.161,18.148-82.595c6.175-5.819,15.604-11.765,28.35-11.765c4.148,0,8.65,0.63,13.503,2.1l30.037,9.104  c23.803,7.222,47.94,7.221,71.741,0l30.037-9.104c19.767-5.985,33.669,1.952,41.854,9.665  C382.261,54.172,389.555,87.364,381.909,119.333z"/></svg>