<?xml version="1.0" encoding="iso-8859-1"?>
<!-- Generator: Adobe Illustrator 19.0.0, SVG Export Plug-In . SVG Version: 6.00 Build 0)  -->
<svg version="1.1" id="Capa_1" xmlns="http://www.w3.org/2000/svg" xmlns:xlink="http://www.w3.org/1999/xlink" x="0px" y="0px"
	 viewBox="0 0 498.416 498.416" style="enable-background:new 0 0 498.416 498.416;" xml:space="preserve">
<path d="M203.52,304.96l-29.936,112.248h324.832L468.48,304.96c-3.728-13.984-16.448-23.752-30.92-23.752h-14.824
	c7.344-18.368,16.736-35.848,28.096-52.256C480.384,186.264,496,136.264,496,84.352c0-45.848-37.296-83.144-83.144-83.144
	c-16.6,0-33.152,5.248-47.864,15.168c-8.68,5.864-18.44,8.832-28.992,8.832s-20.312-2.968-28.992-8.832
	c-14.712-9.92-31.264-15.168-47.864-15.168c-37.768,0-70.84,25.48-80.424,61.968l15.48,4.064
	c7.736-29.456,34.44-50.032,64.944-50.032c13.4,0,26.856,4.304,38.92,12.44C309.44,37.32,322.2,41.208,336,41.208
	s26.56-3.888,37.944-11.56c12.056-8.136,25.512-12.44,38.912-12.44c37.024,0,67.144,30.12,67.144,67.144
	c0,48.64-14.64,95.496-42.328,135.496c-19.296,27.872-33.256,58.68-41.48,91.584l-8.56,34.232c-1.104,4.44-5.08,7.544-9.664,7.544
	c-5.496,0-9.968-4.472-9.968-9.968V241.208c0-17.648-14.352-32-32-32s-32,14.352-32,32V343.24c0,5.496-4.472,9.968-9.968,9.968
	c-4.584,0-8.56-3.104-9.672-7.544l-8.56-34.232c-5.752-23.008-14.408-45.224-25.744-66.04L236,253.032
	c4.968,9.12,9.328,18.544,13.184,28.176H234.44C219.968,281.208,207.248,290.976,203.52,304.96z M336,225.208
	c8.824,0,16,7.176,16,16v40h-32v-40C320,232.384,327.176,225.208,336,225.208z M260.28,315.304l8.56,34.232
	c2.888,11.584,13.256,19.672,25.192,19.672c14.32,0,25.968-11.648,25.968-25.968v-46.032h32v46.032
	c0,14.32,11.648,25.968,25.968,25.968c11.936,0,22.304-8.088,25.192-19.672l8.56-34.232c1.528-6.12,3.328-12.136,5.28-18.096h20.56
	c7.24,0,13.592,4.88,15.456,11.872l24.568,92.128H194.416l24.568-92.128c1.856-6.992,8.216-11.872,15.456-11.872h20.568
	C256.96,303.176,258.752,309.2,260.28,315.304z"/>
<path d="M336,73.208c-20.008,0-39.32-5.888-55.832-17.032l8.944-13.264c13.864,9.352,30.072,14.296,46.888,14.296
	s33.024-4.944,46.888-14.304l8.952,13.264C375.328,67.32,356.016,73.208,336,73.208z"/>
<path style="fill:#F0BC5E;" d="M316.44,154.552l-38.464-25.648l9.064-45.32c0.52-2.624-0.296-5.336-2.184-7.224
	s-4.6-2.688-7.224-2.184l-45.32,9.064l-25.648-38.464c-2.968-4.456-10.344-4.456-13.312,0L167.704,83.24l-45.32-9.064
	c-2.624-0.496-5.336,0.296-7.224,2.184s-2.712,4.6-2.184,7.224l4.312,21.624H136v16h32v16l72.152,14.432
	c4.568,0.912,7.848,4.92,7.848,9.568s-3.28,8.656-7.848,9.568L168,185.208v16h-32v16h-18.712l-4.328,21.624
	c-0.52,2.624,0.296,5.336,2.184,7.224s4.6,2.704,7.224,2.184l45.32-9.064l25.648,38.464c1.496,2.232,3.992,3.568,6.664,3.568
	s5.168-1.336,6.656-3.56l25.648-38.464l45.32,9.064c2.616,0.504,5.336-0.296,7.224-2.184s2.712-4.6,2.184-7.224l-9.064-45.32
	l38.464-25.648c2.232-1.496,3.568-3.992,3.568-6.664S318.664,156.04,316.44,154.552z"/>
<path d="M241.728,143.792L176,130.648v-17.44h-32v-16H64c-35.288,0-64,28.712-64,64c0,32.576,24.48,59.488,56,63.448v201.72
	c0,12.592,10.24,22.832,22.832,22.832H80v32H64v16h80v-16h-16v-32h1.168c12.592,0,22.832-10.24,22.832-22.832
	c0-8.696-4.832-16.52-12.624-20.424L120,396.264v-7.744l24-24v-86.624l-24-24v-28.688h24v-16h32v-17.44l65.728-13.144
	C250,176.968,256,169.64,256,161.208S250,145.448,241.728,143.792z M112,481.208H96v-32h16V481.208z M128,284.52v73.376l-8,8V276.52
	L128,284.52z M104,265.208H88v16h16v16H88v16h16v16H88v16h16v16H88v16h16v28.944l28.216,14.112c2.336,1.16,3.784,3.504,3.784,6.112
	c0,3.76-3.064,6.832-6.832,6.832H78.832c-3.768,0-6.832-3.072-6.832-6.832V225.208h32V265.208z M160,193.208h-16v-16h-16v32H64
	c-26.472,0-48-21.528-48-48s21.528-48,48-48h64v48h16v-32h16V193.208z M238.584,162.936L176,175.448v-28.48l62.584,12.512
	c0.816,0.168,1.416,0.896,1.416,1.728S239.4,162.768,238.584,162.936z"/>
<g>
</g>
<g>
</g>
<g>
</g>
<g>
</g>
<g>
</g>
<g>
</g>
<g>
</g>
<g>
</g>
<g>
</g>
<g>
</g>
<g>
</g>
<g>
</g>
<g>
</g>
<g>
</g>
<g>
</g>
</svg>
